<svg width="40" height="40" viewBox="0 0 40 40" xmlns="http://www.w3.org/2000/svg">
  <line x1="20" y1="20" x2="37.0"  y2="20.0"  stroke="currentColor" stroke-width="2" stroke-linecap="round"/>
  <line x1="20" y1="20" x2="30.63" y2="22.85" stroke="currentColor" stroke-width="2" stroke-linecap="round"/>
  <line x1="20" y1="20" x2="34.72" y2="28.5"  stroke="currentColor" stroke-width="2" stroke-linecap="round"/>
  <line x1="20" y1="20" x2="27.78" y2="27.78" stroke="currentColor" stroke-width="2" stroke-linecap="round"/>
  <line x1="20" y1="20" x2="28.5"  y2="34.72" stroke="currentColor" stroke-width="2" stroke-linecap="round"/>
  <line x1="20" y1="20" x2="22.85" y2="30.63" stroke="currentColor" stroke-width="2" stroke-linecap="round"/>
  <line x1="20" y1="20" x2="20.0"  y2="37.0"  stroke="currentColor" stroke-width="2" stroke-linecap="round"/>
  <line x1="20" y1="20" x2="17.15" y2="30.63" stroke="currentColor" stroke-width="2" stroke-linecap="round"/>
  <line x1="20" y1="20" x2="11.5"  y2="34.72" stroke="currentColor" stroke-width="2" stroke-linecap="round"/>
  <line x1="20" y1="20" x2="12.22" y2="27.78" stroke="currentColor" stroke-width="2" stroke-linecap="round"/>
  <line x1="20" y1="20" x2="5.28"  y2="28.5"  stroke="currentColor" stroke-width="2" stroke-linecap="round"/>
  <line x1="20" y1="20" x2="9.37"  y2="22.85" stroke="currentColor" stroke-width="2" stroke-linecap="round"/>
  <line x1="20" y1="20" x2="3.0"   y2="20.0"  stroke="currentColor" stroke-width="2" stroke-linecap="round"/>
  <line x1="20" y1="20" x2="9.37"  y2="17.15" stroke="currentColor" stroke-width="2" stroke-linecap="round"/>
  <line x1="20" y1="20" x2="5.28"  y2="11.5"  stroke="currentColor" stroke-width="2" stroke-linecap="round"/>
  <line x1="20" y1="20" x2="12.22" y2="12.22" stroke="currentColor" stroke-width="2" stroke-linecap="round"/>
  <line x1="20" y1="20" x2="11.5"  y2="5.28"  stroke="currentColor" stroke-width="2" stroke-linecap="round"/>
  <line x1="20" y1="20" x2="17.15" y2="9.37"  stroke="currentColor" stroke-width="2" stroke-linecap="round"/>
  <line x1="20" y1="20" x2="20.0"  y2="3.0"   stroke="currentColor" stroke-width="2" stroke-linecap="round"/>
  <line x1="20" y1="20" x2="22.85" y2="9.37"  stroke="currentColor" stroke-width="2" stroke-linecap="round"/>
  <line x1="20" y1="20" x2="28.5"  y2="5.28"  stroke="currentColor" stroke-width="2" stroke-linecap="round"/>
  <line x1="20" y1="20" x2="27.78" y2="12.22" stroke="currentColor" stroke-width="2" stroke-linecap="round"/>
  <line x1="20" y1="20" x2="34.72" y2="11.5"  stroke="currentColor" stroke-width="2" stroke-linecap="round"/>
  <line x1="20" y1="20" x2="30.63" y2="17.15" stroke="currentColor" stroke-width="2" stroke-linecap="round"/>
</svg>
