<svg xmlns="http://www.w3.org/2000/svg" viewBox="0 5 16.94 7">
  <path fill="#000" d="m 7.6572583,5.2398783 c 1.4519533,-0.02244 2.9052697,-0.02547 4.3599527,-0.0094 0.01275,0.146768 0.01934,0.295133 0.01952,0.444796 -1.67e-4,0.149665 -0.0068,0.298029 -0.01952,0.444796 -1.454683,0.01608 -2.9079994,0.01268 -4.3599527,-0.0098 z"/>
  <path fill="#000" d="m 14.430506,6.9453103 c 0.308084,-0.0062 0.614703,3.34e-4 0.919856,0.01952 0.0097,0.419492 0.01305,0.839281 0.0098,1.258973 h 1.37474 v 0.852232 h -1.37474 c 0.0033,0.419691 -6.7e-5,0.839482 -0.0098,1.2589717 -0.305153,0.01918 -0.611772,0.02541 -0.919856,0.01918 V 9.0760373 h -1.374741 v -0.852232 h 1.374741 z"/>
  <path fill="#000" d="m 12.042582,8.1451163 c 0.0063,0.302291 -2.99e-4,0.603083 -0.01951,0.902277 -1.118965,0.0064 -2.2379287,0.01311 -3.3568915,0.01951 -0.01612,0.862222 -0.02597,1.7259097 -0.02927,2.5908277 -0.3265299,0.0258 -0.6531251,0.0258 -0.9796549,0 V 8.1646233 c 1.460343,-0.01942 2.9222184,-0.02594 4.3853234,-0.01952 z"/>
  <path fill="#000" d="m 3.5307065,5.1683263 c 0.2991265,-0.0077 0.5961565,0.01262 0.8909227,0.06083 0.3717118,0.06996 0.7226461,0.194212 1.0528391,0.37261 0.188352,0.113837 0.3665838,0.240528 0.5345596,0.380436 0.059737,0.05946 0.1191341,0.11887 0.1781651,0.178164 0.00768,0.0039 0.015881,0.0054 0.024401,0.0043 -0.0012,0.0084 3.27e-5,0.01645 0.0039,0.02407 0.036658,0.02144 0.044812,0.05118 0.024376,0.0891 -0.1949122,0.193448 -0.3879606,0.391956 -0.5790773,0.595359 -0.025672,0.02131 -0.052677,0.02401 -0.080979,0.0082 C 5.4319477,6.7375173 5.2752586,6.6026693 5.1099797,6.4765463 4.9953758,6.4068293 4.8765777,6.3446623 4.7536179,6.2902233 4.5418908,6.2160403 4.3260362,6.1593723 4.1058853,6.1201503 c -0.2642659,-0.02324 -0.5288666,-0.02597 -0.7936988,-0.0082 -0.3157753,0.04924 -0.6182329,0.141074 -0.9071712,0.275422 -0.7247452,0.39998 -1.1363778,1.01405 -1.2348991,1.842309 -0.05391,0.649331 0.1243314,1.221548 0.5345269,1.716787 0.024841,0.02547 0.047606,0.05254 0.068621,0.08098 0.00667,0.0072 0.014887,0.0099 0.024376,0.0082 -0.0012,0.0086 3.335e-4,0.01671 0.00428,0.02437 0.5195769,0.502197 1.1457668,0.748051 1.8787356,0.737131 0.4812544,0.01568 0.9307439,-0.09376 1.3484043,-0.328062 0.046247,-0.02458 0.088064,-0.0558 0.1255269,-0.09332 0.00667,-0.7034014 0.00554,-1.4066364 -0.0039,-2.1095724 0.00554,-0.02707 0.021645,-0.04315 0.048449,-0.04847 0.2996601,-0.0054 0.5994209,-0.0054 0.899047,0 0.019015,9e-4 0.031171,0.01032 0.036431,0.0283 0.00805,0.858692 0.00529,1.717086 -0.00818,2.5752114 -0.071415,0.07681 -0.1484313,0.148332 -0.2308713,0.21459 -0.1190335,0.08137 -0.2378304,0.162616 -0.356363,0.243224 C 5.0581125,11.536392 4.5424971,11.684956 3.9924539,11.724511 3.608889,11.747351 3.228221,11.72551 2.8505165,11.659491 2.2097407,11.526938 1.6481113,11.244791 1.1659257,10.813113 0.37978339,10.037027 0.05724935,9.0922663 0.19825601,7.9787623 c 0.0303328,-0.217786 0.0788108,-0.431178 0.14566809,-0.639908 0.30109186,-0.781647 0.820869,-1.371444 1.5590981,-1.769492 0.070182,-0.02966 0.140507,-0.05936 0.2106939,-0.08907 0.2045025,-0.09639 0.4176264,-0.169474 0.6395756,-0.218852 0.1471326,-0.03093 0.2956646,-0.05517 0.4454613,-0.07281 0.1119108,-0.0072 0.2225809,-0.01388 0.33199,-0.02017 z"/>
</svg>
